<svg width="172" height="24" viewBox="0 0 172 24" fill="none" xmlns="http://www.w3.org/2000/svg">
<path d="M0.179688 0.542969H2.77344L9.74219 19.2617L16.7266 0.542969H19.2734L10.8047 22.9492H8.69531L0.179688 0.542969ZM32.4109 7.40234H34.7547V22.9492H32.4109V19.3398C31.838 20.5898 31.0047 21.5586 29.9109 22.2461C28.8276 22.9232 27.5516 23.2617 26.0828 23.2617C24.6766 23.2617 23.3797 22.9023 22.1922 22.1836C21.0151 21.4648 20.0828 20.4805 19.3953 19.2305C18.7078 17.9805 18.3641 16.6159 18.3641 15.1367C18.3641 13.6576 18.7078 12.2982 19.3953 11.0586C20.0828 9.81901 21.0151 8.84505 22.1922 8.13672C23.3797 7.42839 24.6766 7.07422 26.0828 7.07422C27.5516 7.07422 28.8328 7.41797 29.9266 8.10547C31.0203 8.78255 31.8484 9.74089 32.4109 10.9805V7.40234ZM26.5203 21.0586C28.2182 21.0586 29.6245 20.5013 30.7391 19.3867C31.8536 18.2617 32.4109 16.8451 32.4109 15.1367C32.4109 13.4388 31.8536 12.0326 30.7391 10.918C29.6245 9.80339 28.2182 9.24609 26.5203 9.24609C24.8745 9.24609 23.4839 9.81901 22.3484 10.9648C21.2234 12.1107 20.6609 13.5013 20.6609 15.1367C20.6609 16.8034 21.2234 18.2096 22.3484 19.3555C23.4839 20.4909 24.8745 21.0586 26.5203 21.0586ZM41.2672 0.542969V22.9492H38.9234V0.542969H41.2672ZM57.3109 7.40234H59.6547V22.9492H57.3109V19.9336C56.8109 20.9857 56.1026 21.8034 55.1859 22.3867C54.2797 22.9701 53.2172 23.2617 51.9984 23.2617C49.9984 23.2617 48.4047 22.6367 47.2172 21.3867C46.0297 20.1367 45.4359 18.4596 45.4359 16.3555V7.40234H47.7797V16.1055C47.7797 17.6159 48.2068 18.819 49.0609 19.7148C49.9151 20.6107 51.0557 21.0586 52.4828 21.0586C53.9516 21.0586 55.1234 20.6107 55.9984 19.7148C56.8734 18.819 57.3109 17.6159 57.3109 16.1055V7.40234ZM78.2609 14.6992C78.2609 15.168 78.2505 15.4648 78.2297 15.5898H65.1984C65.313 17.2565 65.8859 18.6003 66.9172 19.6211C67.9484 20.6419 69.2766 21.1523 70.9016 21.1523C72.1516 21.1523 73.2245 20.8711 74.1203 20.3086C75.0266 19.7357 75.5839 18.9753 75.7922 18.0273H78.1359C77.8339 19.6003 77.0109 20.8659 75.6672 21.8242C74.3234 22.7826 72.7141 23.2617 70.8391 23.2617C68.5786 23.2617 66.688 22.4805 65.1672 20.918C63.6568 19.3555 62.9016 17.4076 62.9016 15.0742C62.9016 12.8346 63.6672 10.944 65.1984 9.40234C66.7297 7.85026 68.5995 7.07422 70.8078 7.07422C72.1932 7.07422 73.4536 7.40234 74.5891 8.05859C75.7245 8.70443 76.6203 9.61068 77.2766 10.7773C77.9328 11.944 78.2609 13.2513 78.2609 14.6992ZM65.3078 13.6055H75.7609C75.6464 12.3138 75.1203 11.2565 74.1828 10.4336C73.2557 9.60026 72.0995 9.18359 70.7141 9.18359C69.3391 9.18359 68.162 9.58464 67.1828 10.3867C66.2036 11.1888 65.5786 12.2617 65.3078 13.6055Z" fill="#FF4500"/>
<path d="M90.1328 7.07422C91.5391 7.07422 92.8307 7.42839 94.0078 8.13672C95.1953 8.84505 96.1328 9.81901 96.8203 11.0586C97.5078 12.2982 97.8516 13.6576 97.8516 15.1367C97.8516 16.6159 97.5078 17.9805 96.8203 19.2305C96.1328 20.4805 95.1953 21.4648 94.0078 22.1836C92.8307 22.9023 91.5391 23.2617 90.1328 23.2617C88.6641 23.2617 87.3828 22.9232 86.2891 22.2461C85.2057 21.5586 84.3776 20.5898 83.8047 19.3398V22.9492H81.4609V0.542969H83.8047V10.9805C84.3672 9.74089 85.1953 8.78255 86.2891 8.10547C87.3828 7.41797 88.6641 7.07422 90.1328 7.07422ZM89.6953 21.0586C91.3411 21.0586 92.7266 20.4909 93.8516 19.3555C94.9766 18.2096 95.5391 16.8034 95.5391 15.1367C95.5391 13.5013 94.9766 12.1107 93.8516 10.9648C92.7266 9.81901 91.3411 9.24609 89.6953 9.24609C87.9974 9.24609 86.5911 9.80339 85.4766 10.918C84.362 12.0326 83.8047 13.4388 83.8047 15.1367C83.8047 16.8451 84.362 18.2617 85.4766 19.3867C86.5911 20.5013 87.9974 21.0586 89.6953 21.0586ZM101.989 9.41797C103.541 7.85547 105.447 7.07422 107.708 7.07422C109.968 7.07422 111.874 7.85547 113.427 9.41797C114.989 10.9701 115.77 12.8867 115.77 15.168C115.77 17.4492 114.989 19.3711 113.427 20.9336C111.874 22.4857 109.968 23.2617 107.708 23.2617C105.447 23.2617 103.541 22.4857 101.989 20.9336C100.447 19.3711 99.6766 17.4492 99.6766 15.168C99.6766 12.8867 100.447 10.9701 101.989 9.41797ZM107.708 9.29297C106.093 9.29297 104.734 9.85547 103.63 10.9805C102.526 12.1055 101.973 13.5013 101.973 15.168C101.973 16.8242 102.526 18.2201 103.63 19.3555C104.734 20.4909 106.093 21.0586 107.708 21.0586C109.322 21.0586 110.687 20.4909 111.802 19.3555C112.916 18.2096 113.473 16.8138 113.473 15.168C113.473 13.5117 112.916 12.1211 111.802 10.9961C110.697 9.86068 109.333 9.29297 107.708 9.29297ZM130.892 7.40234H133.236V22.9492H130.892V19.9336C130.392 20.9857 129.684 21.8034 128.767 22.3867C127.861 22.9701 126.798 23.2617 125.58 23.2617C123.58 23.2617 121.986 22.6367 120.798 21.3867C119.611 20.1367 119.017 18.4596 119.017 16.3555V7.40234H121.361V16.1055C121.361 17.6159 121.788 18.819 122.642 19.7148C123.496 20.6107 124.637 21.0586 126.064 21.0586C127.533 21.0586 128.705 20.6107 129.58 19.7148C130.455 18.819 130.892 17.6159 130.892 16.1055V7.40234ZM145.061 7.07422C147.071 7.07422 148.665 7.69922 149.842 8.94922C151.03 10.1888 151.623 11.8711 151.623 13.9961V22.9492H149.28V14.2148C149.28 12.7253 148.847 11.5326 147.983 10.6367C147.129 9.74089 145.993 9.29297 144.577 9.29297C143.118 9.29297 141.946 9.74609 141.061 10.6523C140.186 11.5482 139.748 12.7357 139.748 14.2148V22.9492H137.405V7.40234H139.748V10.4336C140.248 9.37109 140.957 8.54818 141.873 7.96484C142.79 7.37109 143.853 7.07422 145.061 7.07422ZM168.917 0.542969H171.261V22.9492H168.917V19.3398C168.344 20.5898 167.511 21.5586 166.417 22.2461C165.334 22.9232 164.058 23.2617 162.589 23.2617C161.183 23.2617 159.886 22.9023 158.698 22.1836C157.521 21.4648 156.589 20.4805 155.902 19.2305C155.214 17.9805 154.87 16.6159 154.87 15.1367C154.87 13.6576 155.214 12.2982 155.902 11.0586C156.589 9.81901 157.521 8.84505 158.698 8.13672C159.886 7.42839 161.183 7.07422 162.589 7.07422C164.058 7.07422 165.339 7.41797 166.433 8.10547C167.527 8.78255 168.355 9.74089 168.917 10.9805V0.542969ZM163.027 21.0586C164.724 21.0586 166.131 20.5013 167.245 19.3867C168.36 18.2617 168.917 16.8451 168.917 15.1367C168.917 13.4388 168.36 12.0326 167.245 10.918C166.131 9.80339 164.724 9.24609 163.027 9.24609C161.381 9.24609 159.99 9.81901 158.855 10.9648C157.73 12.1107 157.167 13.5013 157.167 15.1367C157.167 16.8034 157.73 18.2096 158.855 19.3555C159.99 20.4909 161.381 21.0586 163.027 21.0586Z" fill="#18181B"/>
</svg>
