<svg width="60" height="60" viewBox="0 0 60 60" fill="none" xmlns="http://www.w3.org/2000/svg">
<mask id="mask0_742_2392" style="mask-type:luminance" maskUnits="userSpaceOnUse" x="0" y="0" width="60" height="60">
<path d="M60 0H0V60H60V0Z" fill="white"/>
</mask>
<g mask="url(#mask0_742_2392)">
<path fill-rule="evenodd" clip-rule="evenodd" d="M5.11164 11.2794C5.93516 5.72439 10.361 1.27734 15.9759 1.27734C19.3372 1.27734 22.3082 2.90037 24.2984 5.38283C24.9462 6.19077 24.8163 7.37082 24.0084 8.01857C23.2005 8.66632 22.0204 8.53644 21.3727 7.72852C20.0174 6.03814 18.0822 5.02734 15.9759 5.02734C12.6614 5.02734 9.67591 7.60434 8.91212 11.2923C9.28214 11.3393 9.64184 11.4969 9.93826 11.7674C10.7031 12.4655 10.7572 13.6515 10.0592 14.4163L8.23377 16.4163C7.87849 16.8056 7.37584 17.0273 6.84887 17.0273C6.32189 17.0273 5.81921 16.8056 5.46396 16.4163L3.63857 14.4163C2.94047 13.6515 2.99459 12.4655 3.75947 11.7674C4.14259 11.4177 4.63142 11.2568 5.11164 11.2794ZM30.6484 8.14917C30.6514 7.11364 31.4934 6.27664 32.5289 6.27967C36.3967 6.29099 39.5302 6.35447 42.0457 6.78129C44.6157 7.21734 46.7252 8.06024 48.4204 9.75544C50.2912 11.6264 51.1214 13.9987 51.5157 16.9298C51.8984 19.7778 51.8984 23.4169 51.8984 28.0113V38.2933C51.8984 42.8878 51.8984 46.5268 51.5157 49.3748C51.1214 52.3058 50.2912 54.6783 48.4204 56.5493C46.5494 58.4201 44.1769 59.2503 41.2459 59.6446C38.3979 60.0273 34.7589 60.0273 30.1644 60.0273H29.8824C25.2879 60.0273 21.6489 60.0273 18.8009 59.6446C15.8698 59.2503 13.4975 58.4201 11.6266 56.5493C9.75564 54.6783 8.92536 52.3058 8.53129 49.3748C8.14839 46.5268 8.14842 42.8878 8.14844 38.2933V30.6546C8.14844 29.6191 8.98792 28.7796 10.0234 28.7796C11.059 28.7796 11.8984 29.6191 11.8984 30.6546V38.1523C11.8984 42.9193 11.9024 46.3061 12.2478 48.8753C12.586 51.3903 13.2202 52.8396 14.2782 53.8976C15.3362 54.9556 16.7853 55.5898 19.3006 55.9278C21.8697 56.2733 25.2564 56.2773 30.0234 56.2773C34.7904 56.2773 38.1772 56.2733 40.7464 55.9278C43.2614 55.5898 44.7107 54.9556 45.7687 53.8976C46.8267 52.8396 47.4609 51.3903 47.7989 48.8753C48.1444 46.3061 48.1484 42.9193 48.1484 38.1523V28.1523C48.1484 23.3853 48.1444 19.9986 47.7989 17.4295C47.4609 14.9142 46.8267 13.4651 45.7687 12.4071C44.8062 11.4446 43.5229 10.8356 41.4184 10.4784C39.2592 10.1121 36.4359 10.0411 32.5179 10.0297C31.4824 10.0266 30.6454 9.18472 30.6484 8.14917ZM25.6979 9.27734C26.2249 9.27734 26.7277 9.49912 27.0829 9.88834L28.9084 11.8883C29.6064 12.6532 29.5522 13.8391 28.7874 14.5372C28.4042 14.8869 27.9154 15.0479 27.4352 15.0253C26.6117 20.5803 22.1858 25.0273 16.571 25.0273C13.4447 25.0273 10.6522 23.622 8.67649 21.4258C7.98391 20.6559 8.04659 19.4704 8.81644 18.7778C9.58629 18.0853 10.7718 18.1479 11.4644 18.9178C12.7992 20.4015 14.6088 21.2773 16.571 21.2773C19.8855 21.2773 22.871 18.7003 23.6348 15.0123C23.2648 14.9654 22.9051 14.8078 22.6086 14.5372C21.8438 13.8391 21.7897 12.6532 22.4877 11.8883L24.3131 9.88834C24.6684 9.49912 25.1709 9.27734 25.6979 9.27734ZM20.6484 50.6523C20.6484 49.6168 21.4879 48.7773 22.5234 48.7773H37.5234C38.5589 48.7773 39.3984 49.6168 39.3984 50.6523C39.3984 51.6878 38.5589 52.5273 37.5234 52.5273H22.5234C21.4879 52.5273 20.6484 51.6878 20.6484 50.6523Z" fill="#FF4500"/>
</g>
</svg>
