<svg width="48" height="49" viewBox="0 0 48 49" fill="none" xmlns="http://www.w3.org/2000/svg">
<path fill-rule="evenodd" clip-rule="evenodd" d="M20.5632 0.800782H27.4368C31.0163 0.800759 33.8226 0.800759 36.0645 1.01392C38.3495 1.2312 40.2207 1.68168 41.8703 2.69248C43.5976 3.75098 45.0499 5.20326 46.1084 6.93058C47.119 8.58004 47.5696 10.4512 47.7868 12.7363C48 14.9782 48 17.7845 48 21.364V23.7466C48 26.2946 48 28.2926 47.8899 29.9063C47.7779 31.5483 47.5463 32.9149 47.0228 34.1785C45.7199 37.324 43.2208 39.8231 40.0753 41.126C38.2783 41.8703 36.2313 42.0356 33.4288 42.0838C32.4485 42.1007 31.8276 42.1133 31.3543 42.1655C30.912 42.2146 30.7405 42.2863 30.6401 42.3448C30.5343 42.4062 30.39 42.5185 30.1398 42.8618C29.8687 43.2338 29.5626 43.7475 29.0773 44.5677L27.867 46.6123C26.1399 49.5303 21.8601 49.5303 20.133 46.6123L18.9227 44.5677C18.4372 43.7475 18.1311 43.2338 17.8601 42.8618C17.6098 42.5185 17.4656 42.4062 17.3597 42.3448C17.2594 42.2863 17.088 42.2146 16.6457 42.1655C16.1724 42.1133 15.5514 42.1007 14.5711 42.0838C11.7687 42.0356 9.72176 41.8703 7.92462 41.126C4.77915 39.8231 2.28007 37.324 0.977169 34.1785C0.453723 32.9149 0.22214 31.5483 0.11011 29.9063C-2.19151e-05 28.2926 4.50073e-07 26.2946 4.50073e-07 23.7466V21.364C-2.18755e-05 17.7845 -2.199e-05 14.9782 0.213143 12.7363C0.430415 10.4512 0.880901 8.58004 1.89169 6.93058C2.95019 5.20326 4.40247 3.75098 6.12978 2.69248C7.77924 1.68168 9.65037 1.2312 11.9355 1.01392C14.1774 0.800759 16.9837 0.800759 20.5632 0.800782ZM12.2525 4.34772C10.2125 4.54169 8.9144 4.91368 7.87955 5.54784C6.60284 6.33022 5.52942 7.40363 4.74704 8.68035C4.11289 9.71521 3.7409 11.0133 3.54693 13.0533C3.3506 15.1182 3.34884 17.7655 3.34884 21.452V23.6846C3.34884 26.308 3.34975 28.1919 3.45118 29.6783C3.55158 31.1498 3.74483 32.1094 4.07109 32.897C5.03411 35.222 6.88126 37.069 9.20618 38.0321C10.3574 38.509 11.826 38.6872 14.6288 38.7356L14.6999 38.7367C15.5884 38.7521 16.3671 38.7653 17.0143 38.837C17.7097 38.914 18.3898 39.0696 19.0434 39.4498C19.6916 39.8269 20.1589 40.3303 20.5665 40.8894C20.943 41.4062 21.3299 42.0599 21.7683 42.8004L23.0148 44.9066C23.4452 45.6336 24.5548 45.6336 24.985 44.9066L26.2317 42.8004C26.6699 42.0599 27.0568 41.4062 27.4335 40.8894C27.8409 40.3303 28.3084 39.8269 28.9565 39.4498C29.6102 39.0696 30.2902 38.914 30.9857 38.837C31.6329 38.7653 32.4114 38.7521 33.2999 38.7367L33.3712 38.7356C36.1739 38.6872 37.6427 38.509 38.7938 38.0321C41.1188 37.069 42.9658 35.222 43.9289 32.897C44.2551 32.1094 44.4485 31.1498 44.5489 29.6783C44.6503 28.1919 44.6512 26.308 44.6512 23.6846V21.452C44.6512 17.7655 44.6494 15.1182 44.4531 13.0533C44.2591 11.0133 43.8872 9.71521 43.2529 8.68035C42.4706 7.40363 41.3972 6.33022 40.1204 5.54784C39.0856 4.91368 37.7876 4.54169 35.7475 4.34772C33.6826 4.15139 31.0352 4.14963 27.3488 4.14963H20.6512C16.9647 4.14963 14.3174 4.15139 12.2525 4.34772ZM27.3223 9.7881C28.2155 10.0274 28.7455 10.9456 28.5062 11.8388L22.7279 33.4038C22.4886 34.297 21.5703 34.8271 20.6771 34.5877C19.7838 34.3484 19.2538 33.4301 19.4932 32.5369L25.2714 10.9721C25.5108 10.0788 26.429 9.54875 27.3223 9.7881ZM17.37 14.3061C18.0239 14.96 18.0239 16.0202 17.37 16.6741L16.987 17.0572C15.4652 18.579 14.4454 19.6038 13.7854 20.469C13.1548 21.2953 13.0123 21.7764 13.0123 22.1878C13.0123 22.5993 13.1548 23.0804 13.7854 23.9067C14.4454 24.7718 15.4652 25.7966 16.987 27.3185L17.37 27.7016C18.0239 28.3555 18.0239 29.4155 17.37 30.0695C16.7161 30.7234 15.6559 30.7234 15.0021 30.0695L14.5369 29.6044C13.1185 28.1861 11.9357 27.0033 11.123 25.9381C10.2651 24.8138 9.66347 23.6258 9.66347 22.1878C9.66347 20.7499 10.2651 19.5619 11.123 18.4375C11.9357 17.3724 13.1185 16.1896 14.5369 14.7713L15.0021 14.3061C15.6559 13.6522 16.7161 13.6522 17.37 14.3061ZM30.63 14.3061C31.2839 13.6522 32.344 13.6522 32.9979 14.3061L33.4631 14.7712C34.8815 16.1896 36.0643 17.3723 36.8769 18.4375C37.7349 19.5619 38.3366 20.7499 38.3366 22.1878C38.3366 23.6258 37.7349 24.8138 36.8769 25.9381C36.0643 27.0033 34.8815 28.1861 33.4629 29.6044L32.9979 30.0695C32.344 30.7234 31.2839 30.7234 30.63 30.0695C29.9761 29.4155 29.9761 28.3555 30.63 27.7016L31.0129 27.3185C32.5348 25.7966 33.5547 24.7718 34.2146 23.9067C34.8451 23.0804 34.9878 22.5993 34.9878 22.1878C34.9878 21.7764 34.8451 21.2953 34.2146 20.469C33.5547 19.6038 32.5348 18.579 31.0129 17.0572L30.63 16.6741C29.9761 16.0202 29.9761 14.96 30.63 14.3061Z" fill="#FF4500"/>
</svg>
