<svg width="60" height="61" viewBox="0 0 60 61" fill="none" xmlns="http://www.w3.org/2000/svg">
<path d="M30.0577 38.217C33.934 38.217 37.0764 35.0746 37.0764 31.1983C37.0764 27.322 33.934 24.1797 30.0577 24.1797C26.1814 24.1797 23.0391 27.322 23.0391 31.1983C23.0391 35.0746 26.1814 38.217 30.0577 38.217Z" stroke="#FF4500" stroke-width="3"/>
<path d="M34.1881 8.15696C33.3281 7.80078 32.2381 7.80078 30.0578 7.80078C27.8776 7.80078 26.7876 7.80078 25.9276 8.15696C24.7811 8.63186 23.8702 9.54277 23.3953 10.6893C23.1785 11.2126 23.0937 11.8213 23.0605 12.7091C23.0117 14.0139 22.3426 15.2216 21.2118 15.8744C20.0811 16.5272 18.7007 16.5028 17.5463 15.8927C16.7609 15.4776 16.1913 15.2467 15.6297 15.1728C14.3993 15.0108 13.155 15.3442 12.1704 16.0996C11.432 16.6662 10.887 17.6103 9.79689 19.4984C8.7068 21.3865 8.16176 22.3305 8.04026 23.2533C7.8783 24.4837 8.21171 25.728 8.96717 26.7126C9.31197 27.162 9.79659 27.5396 10.5487 28.0122C11.6544 28.707 12.3659 29.8906 12.3658 31.1963C12.3657 32.502 11.6543 33.6854 10.5487 34.38C9.79647 34.8528 9.31179 35.2306 8.96694 35.6801C8.21147 36.6646 7.87806 37.9087 8.04005 39.1391C8.16152 40.0618 8.70657 41.0061 9.79666 42.8941C10.8868 44.7821 11.4318 45.7264 12.1702 46.2928C13.1547 47.0482 14.3991 47.3816 15.6294 47.2197C16.191 47.1458 16.7606 46.9148 17.546 46.4998C18.7004 45.8897 20.0809 45.8653 21.2117 46.5181C22.3425 47.171 23.0117 48.3787 23.0605 49.6837C23.0937 50.5713 23.1785 51.1801 23.3953 51.7034C23.8702 52.8498 24.7811 53.7608 25.9276 54.2358C26.7876 54.5919 27.8776 54.5919 30.0578 54.5919C32.2381 54.5919 33.3281 54.5919 34.1881 54.2358C35.3345 53.7608 36.2455 52.8498 36.7202 51.7034C36.937 51.1801 37.022 50.5713 37.0552 49.6835C37.1039 48.3787 37.773 47.171 38.9037 46.5181C40.0344 45.8651 41.415 45.8897 42.5695 46.4998C43.3549 46.9148 43.9244 47.1455 44.4859 47.2195C45.7162 47.3816 46.9606 47.0482 47.9451 46.2928C48.6835 45.7261 49.2286 44.7821 50.3186 42.8939C51.4088 41.0058 51.9539 40.0618 52.0754 39.1391C52.2373 37.9087 51.9039 36.6643 51.1484 35.6798C50.8036 35.2304 50.3188 34.8526 49.5667 34.38C48.4612 33.6854 47.7498 32.5018 47.7498 31.1961C47.7498 29.8904 48.4612 28.7073 49.5667 28.0127C50.3191 27.5398 50.8038 27.1622 51.1487 26.7126C51.9041 25.7282 52.2375 24.4838 52.0756 23.2535C51.9542 22.3307 51.4091 21.3866 50.3188 19.4986C49.2288 17.6105 48.6837 16.6664 47.9454 16.0998C46.9609 15.3443 45.7165 15.0109 44.4861 15.1729C43.9246 15.2469 43.3551 15.4777 42.5695 15.8928C41.4152 16.503 40.0346 16.5274 38.9039 15.8745C37.773 15.2216 37.1039 14.0138 37.0552 12.709C37.022 11.8213 36.937 11.2126 36.7202 10.6893C36.2455 9.54277 35.3345 8.63186 34.1881 8.15696Z" stroke="#FF4500" stroke-width="3"/>
</svg>
