<svg width="60" height="61" viewBox="0 0 60 61" fill="none" xmlns="http://www.w3.org/2000/svg">
<path d="M30.2505 24.8142C29.8512 24.5046 29.2967 24.5046 28.8974 24.8142C26.7902 26.4174 20.5684 31.6471 20.6017 37.7392C20.6017 42.6704 24.6275 46.695 29.585 46.695C34.5425 46.695 38.5683 42.6815 38.5683 37.7503C38.5794 31.7466 32.3466 26.4285 30.2505 24.8142Z" stroke="#FF4500" stroke-width="3.5" stroke-miterlimit="10"/>
<path fill-rule="evenodd" clip-rule="evenodd" d="M27.0264 4.80078H32.1364C36.5813 4.80073 40.1018 4.80071 42.8571 5.17117C45.6927 5.55239 47.9879 6.35565 49.798 8.16564C51.6079 9.97565 52.4111 12.2708 52.7925 15.1064C53.1628 17.8617 53.1628 21.3823 53.1628 25.8271V35.7744C53.1628 40.2193 53.1628 43.7398 52.7925 46.4951C52.4111 49.3307 51.6079 51.6259 49.798 53.436C47.9879 55.2459 45.6927 56.0491 42.8571 56.4305C40.1018 56.8008 36.5813 56.8008 32.1364 56.8008H27.0264C22.5815 56.8008 19.0609 56.8008 16.3056 56.4305C13.47 56.0491 11.1749 55.2459 9.36486 53.436C7.55487 51.6259 6.75161 49.3307 6.37039 46.4951C5.99993 43.7398 5.99995 40.2193 6 35.7744V25.8271C5.99995 21.3823 5.99993 17.8617 6.37039 15.1064C6.75161 12.2708 7.55487 9.97565 9.36486 8.16564C11.1749 6.35565 13.47 5.55239 16.3056 5.17117C19.0609 4.80071 22.5815 4.80073 27.0264 4.80078ZM16.789 8.76671C14.3557 9.09385 12.9538 9.70738 11.9302 10.731C10.9066 11.7545 10.2931 13.1565 9.96593 15.5898C9.63175 18.0753 9.62791 21.3517 9.62791 25.9636V35.638C9.62791 40.2498 9.63175 43.5263 9.96593 46.0119C10.2931 48.445 10.9066 49.847 11.9302 50.8706C12.9538 51.8942 14.3557 52.5078 16.789 52.8348C19.2745 53.169 22.5509 53.1729 27.1628 53.1729H32C36.6118 53.1729 39.8883 53.169 42.3739 52.8348C44.807 52.5078 46.2091 51.8942 47.2326 50.8706C48.2562 49.847 48.8698 48.445 49.1968 46.0119C49.531 43.5263 49.5349 40.2498 49.5349 35.638V25.9636C49.5349 21.3517 49.531 18.0753 49.1968 15.5898C48.8698 13.1565 48.2562 11.7545 47.2326 10.731C46.2091 9.70738 44.807 9.09385 42.3739 8.76671C39.8883 8.43254 36.6118 8.42869 32 8.42869H27.1628C22.5509 8.42869 19.2745 8.43254 16.789 8.76671ZM18.093 16.2892C18.093 15.2873 18.9052 14.4752 19.907 14.4752H39.2558C40.2576 14.4752 41.0698 15.2873 41.0698 16.2892C41.0698 17.291 40.2576 18.1031 39.2558 18.1031H19.907C18.9052 18.1031 18.093 17.291 18.093 16.2892Z" fill="#FF4500"/>
</svg>
